<svg width="132" height="29" viewBox="0 0 132 29" fill="none" xmlns="http://www.w3.org/2000/svg">
<path d="M99.4999 2.82568C98.8332 9.99235 98.0999 24.7257 100.5 26.3257" stroke="#EF8600" stroke-width="4" stroke-linecap="round"/>
<path d="M91 5.62404C108 -5.67419 119.5 12.8258 99 15.3258" stroke="#EF8600" stroke-width="4" stroke-linecap="round"/>
<path d="M0.944824 18.55C0.944824 16.696 1.35882 15.04 2.18682 13.582C3.03282 12.106 4.17582 10.963 5.61582 10.153C7.07382 9.32503 8.70282 8.91103 10.5028 8.91103C12.6088 8.91103 14.4538 9.45103 16.0378 10.531C17.6218 11.611 18.7288 13.105 19.3588 15.013H15.0118C14.5798 14.113 13.9678 13.438 13.1758 12.988C12.4018 12.538 11.5018 12.313 10.4758 12.313C9.37782 12.313 8.39682 12.574 7.53282 13.096C6.68682 13.6 6.02082 14.32 5.53482 15.256C5.06682 16.192 4.83282 17.29 4.83282 18.55C4.83282 19.792 5.06682 20.89 5.53482 21.844C6.02082 22.78 6.68682 23.509 7.53282 24.031C8.39682 24.535 9.37782 24.787 10.4758 24.787C11.5018 24.787 12.4018 24.562 13.1758 24.112C13.9678 23.644 14.5798 22.96 15.0118 22.06H19.3588C18.7288 23.986 17.6218 25.489 16.0378 26.569C14.4718 27.631 12.6268 28.162 10.5028 28.162C8.70282 28.162 7.07382 27.757 5.61582 26.947C4.17582 26.119 3.03282 24.976 2.18682 23.518C1.35882 22.06 0.944824 20.404 0.944824 18.55Z" fill="black"/>
<path d="M29.2294 28.243C27.7894 28.243 26.4934 27.928 25.3414 27.298C24.1894 26.65 23.2804 25.741 22.6144 24.571C21.9664 23.401 21.6424 22.051 21.6424 20.521C21.6424 18.991 21.9754 17.641 22.6414 16.471C23.3254 15.301 24.2524 14.401 25.4224 13.771C26.5924 13.123 27.8974 12.799 29.3374 12.799C30.7774 12.799 32.0824 13.123 33.2524 13.771C34.4224 14.401 35.3404 15.301 36.0064 16.471C36.6904 17.641 37.0324 18.991 37.0324 20.521C37.0324 22.051 36.6814 23.401 35.9794 24.571C35.2954 25.741 34.3594 26.65 33.1714 27.298C32.0014 27.928 30.6874 28.243 29.2294 28.243ZM29.2294 24.949C29.9134 24.949 30.5524 24.787 31.1464 24.463C31.7584 24.121 32.2444 23.617 32.6044 22.951C32.9644 22.285 33.1444 21.475 33.1444 20.521C33.1444 19.099 32.7664 18.01 32.0104 17.254C31.2724 16.48 30.3634 16.093 29.2834 16.093C28.2034 16.093 27.2944 16.48 26.5564 17.254C25.8364 18.01 25.4764 19.099 25.4764 20.521C25.4764 21.943 25.8274 23.041 26.5294 23.815C27.2494 24.571 28.1494 24.949 29.2294 24.949Z" fill="black"/>
<path d="M46.4472 28.243C45.0072 28.243 43.7112 27.928 42.5592 27.298C41.4072 26.65 40.4982 25.741 39.8322 24.571C39.1842 23.401 38.8602 22.051 38.8602 20.521C38.8602 18.991 39.1932 17.641 39.8592 16.471C40.5432 15.301 41.4702 14.401 42.6402 13.771C43.8102 13.123 45.1152 12.799 46.5552 12.799C47.9952 12.799 49.3002 13.123 50.4702 13.771C51.6402 14.401 52.5582 15.301 53.2242 16.471C53.9082 17.641 54.2502 18.991 54.2502 20.521C54.2502 22.051 53.8992 23.401 53.1972 24.571C52.5132 25.741 51.5772 26.65 50.3892 27.298C49.2192 27.928 47.9052 28.243 46.4472 28.243ZM46.4472 24.949C47.1312 24.949 47.7702 24.787 48.3642 24.463C48.9762 24.121 49.4622 23.617 49.8222 22.951C50.1822 22.285 50.3622 21.475 50.3622 20.521C50.3622 19.099 49.9842 18.01 49.2282 17.254C48.4902 16.48 47.5812 16.093 46.5012 16.093C45.4212 16.093 44.5122 16.48 43.7742 17.254C43.0542 18.01 42.6942 19.099 42.6942 20.521C42.6942 21.943 43.0452 23.041 43.7472 23.815C44.4672 24.571 45.3672 24.949 46.4472 24.949Z" fill="black"/>
<path d="M65.879 28L60.803 21.628V28H57.023V8.02003H60.803V19.387L65.825 13.042H70.739L64.151 20.548L70.793 28H65.879Z" fill="black"/>
<path d="M74.7076 11.26C74.0416 11.26 73.4836 11.053 73.0336 10.639C72.6016 10.207 72.3856 9.67603 72.3856 9.04603C72.3856 8.41603 72.6016 7.89403 73.0336 7.48003C73.4836 7.04803 74.0416 6.83203 74.7076 6.83203C75.3736 6.83203 75.9226 7.04803 76.3546 7.48003C76.8046 7.89403 77.0296 8.41603 77.0296 9.04603C77.0296 9.67603 76.8046 10.207 76.3546 10.639C75.9226 11.053 75.3736 11.26 74.7076 11.26ZM76.5706 13.042V28H72.7906V13.042H76.5706Z" fill="black"/>
<path d="M94.2102 20.197C94.2102 20.737 94.1742 21.223 94.1022 21.655H83.1672C83.2572 22.735 83.6352 23.581 84.3012 24.193C84.9672 24.805 85.7862 25.111 86.7582 25.111C88.1622 25.111 89.1612 24.508 89.7552 23.302H93.8322C93.4002 24.742 92.5722 25.93 91.3482 26.866C90.1242 27.784 88.6212 28.243 86.8392 28.243C85.3992 28.243 84.1032 27.928 82.9512 27.298C81.8172 26.65 80.9262 25.741 80.2782 24.571C79.6482 23.401 79.3332 22.051 79.3332 20.521C79.3332 18.973 79.6482 17.614 80.2782 16.444C80.9082 15.274 81.7902 14.374 82.9242 13.744C84.0582 13.114 85.3632 12.799 86.8392 12.799C88.2612 12.799 89.5302 13.105 90.6462 13.717C91.7802 14.329 92.6532 15.202 93.2652 16.336C93.8952 17.452 94.2102 18.739 94.2102 20.197ZM90.2952 19.117C90.2772 18.145 89.9262 17.371 89.2422 16.795C88.5582 16.201 87.7212 15.904 86.7312 15.904C85.7952 15.904 85.0032 16.192 84.3552 16.768C83.7252 17.326 83.3382 18.109 83.1942 19.117H90.2952Z" fill="black"/>
<path d="M108.864 20.467C108.864 18.955 109.161 17.614 109.755 16.444C110.367 15.274 111.186 14.374 112.212 13.744C113.256 13.114 114.417 12.799 115.695 12.799C116.811 12.799 117.783 13.024 118.611 13.474C119.457 13.924 120.132 14.491 120.636 15.175V13.042H124.443V28H120.636V25.813C120.15 26.515 119.475 27.1 118.611 27.568C117.765 28.018 116.784 28.243 115.668 28.243C114.408 28.243 113.256 27.919 112.212 27.271C111.186 26.623 110.367 25.714 109.755 24.544C109.161 23.356 108.864 21.997 108.864 20.467ZM120.636 20.521C120.636 19.603 120.456 18.82 120.096 18.172C119.736 17.506 119.25 17.002 118.638 16.66C118.026 16.3 117.369 16.12 116.667 16.12C115.965 16.12 115.317 16.291 114.723 16.633C114.129 16.975 113.643 17.479 113.265 18.145C112.905 18.793 112.725 19.567 112.725 20.467C112.725 21.367 112.905 22.159 113.265 22.843C113.643 23.509 114.129 24.022 114.723 24.382C115.335 24.742 115.983 24.922 116.667 24.922C117.369 24.922 118.026 24.751 118.638 24.409C119.25 24.049 119.736 23.545 120.096 22.897C120.456 22.231 120.636 21.439 120.636 20.521Z" fill="black"/>
<path d="M131.915 8.02003V28H128.135V8.02003H131.915Z" fill="black"/>
</svg>
